<svg width="2662" height="1196" viewBox="0 0 2662 1196" fill="none" xmlns="http://www.w3.org/2000/svg">
<path d="M843.003 888C808.336 888 775.536 885.333 744.603 880C713.67 874.133 687.27 866.133 665.403 856V732C689.403 743.2 716.07 752.267 745.403 759.2C774.736 766.133 802.203 769.6 827.803 769.6C854.47 769.6 874.47 767.467 887.803 763.2C901.67 758.4 908.603 748 908.603 732C908.603 720.8 904.603 712 896.603 705.6C889.136 699.2 877.136 693.333 860.603 688C844.603 682.667 823.536 676 797.403 668C762.736 656.8 735.27 644.533 715.003 631.2C694.736 617.867 680.07 601.6 671.003 582.4C662.47 563.2 658.203 539.733 658.203 512C658.203 461.333 676.07 422.933 711.803 396.8C748.07 370.133 801.67 356.8 872.603 356.8C900.87 356.8 929.936 359.2 959.803 364C990.203 368.8 1014.74 374.133 1033.4 380V504.8C1008.34 494.667 984.336 487.467 961.403 483.2C938.47 478.933 916.87 476.8 896.603 476.8C873.136 476.8 853.136 478.667 836.603 482.4C820.07 486.133 811.803 495.733 811.803 511.2C811.803 524.533 818.736 534.4 832.603 540.8C847.003 546.667 872.336 554.4 908.603 564C950.736 575.2 982.736 588.8 1004.6 604.8C1027 620.8 1042.2 639.467 1050.2 660.8C1058.2 681.6 1062.2 705.333 1062.2 732C1062.2 778.933 1044.07 816.8 1007.8 845.6C971.536 873.867 916.603 888 843.003 888ZM1197.95 880V364.8H1348.35V880H1197.95ZM1670.49 880L1472.89 364.8H1629.69L1749.69 705.6L1869.69 364.8H2027.29L1829.69 880H1670.49ZM2378.59 888C2293.26 888 2227.92 867.2 2182.59 825.6C2137.79 784 2115.39 716.8 2115.39 624C2115.39 560 2125.52 508.533 2145.79 469.6C2166.06 430.133 2195.66 401.6 2234.59 384C2274.06 365.867 2322.06 356.8 2378.59 356.8C2435.12 356.8 2482.86 365.867 2521.79 384C2561.26 401.6 2591.12 430.133 2611.39 469.6C2631.66 508.533 2641.79 560 2641.79 624C2641.79 716.8 2619.12 784 2573.79 825.6C2528.46 867.2 2463.39 888 2378.59 888ZM2378.59 760C2416.99 760 2444.72 749.333 2461.79 728C2479.39 706.133 2488.19 671.467 2488.19 624C2488.19 573.333 2479.39 537.6 2461.79 516.8C2444.72 495.467 2416.99 484.8 2378.59 484.8C2340.19 484.8 2312.19 495.467 2294.59 516.8C2277.52 537.6 2268.99 573.333 2268.99 624C2268.99 671.467 2277.52 706.133 2294.59 728C2312.19 749.333 2340.19 760 2378.59 760Z" fill="white"/>
<circle cx="289" cy="611" r="283.5" fill="url(#paint0_linear_38_71)" stroke="white" stroke-width="11"/>
<mask id="path-3-inside-1_38_71" fill="white">
<path fill-rule="evenodd" clip-rule="evenodd" d="M576.167 621.387C530.849 654.659 415.418 728.893 287.609 728.893C160.146 728.893 46.6543 655.06 1.83252 621.658C6.57773 776.174 133.329 899.977 288.995 899.977C444.753 899.977 571.561 776.029 576.167 621.387Z"/>
</mask>
<path fill-rule="evenodd" clip-rule="evenodd" d="M576.167 621.387C530.849 654.659 415.418 728.893 287.609 728.893C160.146 728.893 46.6543 655.06 1.83252 621.658C6.57773 776.174 133.329 899.977 288.995 899.977C444.753 899.977 571.561 776.029 576.167 621.387Z" fill="url(#paint1_linear_38_71)"/>
<path d="M576.167 621.387L587.162 621.715L587.833 599.175L569.657 612.52L576.167 621.387ZM1.83252 621.658L8.40549 612.838L-9.86159 599.225L-9.1623 621.996L1.83252 621.658ZM287.609 739.893C419.13 739.893 537.002 663.788 582.676 630.254L569.657 612.52C524.696 645.53 411.707 717.893 287.609 717.893V739.893ZM-4.74045 630.478C40.4673 664.168 156.409 739.893 287.609 739.893V717.893C163.883 717.893 52.8412 645.952 8.40549 612.838L-4.74045 630.478ZM288.995 888.977C139.291 888.977 17.3907 769.914 12.8273 621.32L-9.1623 621.996C-4.23521 782.434 127.367 910.977 288.995 910.977V888.977ZM565.171 621.06C560.743 769.774 438.788 888.977 288.995 888.977V910.977C450.719 910.977 582.38 782.283 587.162 621.715L565.171 621.06Z" fill="white" mask="url(#path-3-inside-1_38_71)"/>
<path d="M211.702 495.865L211.514 490.559C210.796 470.274 211.286 447.684 218.954 429.671L218.956 429.665C223.07 420.036 229.143 411.953 238.098 406.199L238.103 406.196C247.079 400.441 259.508 396.684 276.885 396.684C296.819 396.684 313.318 403.926 324.979 411.32L324.986 411.325C330.788 415.016 335.321 418.697 338.388 421.441L338.394 421.447L338.399 421.452C339.83 422.74 341.215 424.079 342.551 425.467L342.639 425.555L343.645 426.561C344.081 426.922 344.56 427.23 345.071 427.479C345.91 427.886 346.821 428.124 347.751 428.18C348.682 428.235 349.615 428.107 350.496 427.802C351.377 427.497 352.189 427.021 352.886 426.402C353.584 425.783 354.152 425.033 354.559 424.194C354.866 423.563 355.077 422.892 355.186 422.201L351.984 425.033C351.983 425.034 351.982 425.035 351.98 425.036L348.337 420.916L344.693 416.796C346.753 414.974 348.352 413.558 349.592 412.458C349.027 411.928 348.456 411.405 347.878 410.889C343.098 406.637 337.986 402.773 332.591 399.333C319.427 391.013 300.289 382.489 276.885 382.489C257.452 382.489 242.206 386.707 230.435 394.254L211.702 495.865ZM211.702 495.865L217.01 495.865L452.516 495.877C456.624 495.877 459.301 499.106 458.931 502.321L458.931 502.323C454.322 542.505 426.617 578.009 385.383 600.102L381.728 602.06L382.605 606.112C383.582 610.632 384.03 615.34 384.03 620.167C384.03 640.164 368.786 656.823 350.758 667.95M211.702 495.865L224.014 431.825C216.872 448.605 216.292 470.083 217.01 490.365L452.516 490.377C459.47 490.377 465.189 496.046 464.395 502.949C459.533 545.339 430.395 582.224 387.98 604.95C389.051 609.9 389.53 615.002 389.53 620.167C389.53 643.081 372.196 661.184 353.64 672.635C342.985 679.166 331.474 684.164 319.446 687.489V681.774M338.75 429.444L338.624 429.318C337.368 428.012 336.066 426.752 334.719 425.539L338.75 429.444ZM338.75 429.444V429.457V429.444ZM319.446 681.774C330.445 678.591 340.978 673.944 350.758 667.95M319.446 681.774C317.625 682.301 315.792 682.787 313.946 683.233M319.446 681.774V666.917M350.758 667.95C350.756 667.951 350.754 667.953 350.752 667.954L353.639 672.633L350.766 667.945C350.764 667.947 350.761 667.949 350.758 667.95ZM313.946 683.233L230.435 394.254C218.644 401.828 210.889 412.375 205.896 424.103L205.896 424.104C197.114 444.726 196.584 469.66 197.287 490.176L197.482 495.865H191.791H124.987C120.871 495.865 118.202 499.089 118.572 502.309L118.573 502.312C125.912 566.516 192.656 619.001 277.872 623.164L283.103 623.42V628.658V724.213H297.298M313.946 683.233V662.859M313.946 683.233L297.298 729.713V724.213M319.446 666.917C327.776 664.18 335.766 660.488 343.255 655.913L343.27 655.904L343.285 655.894C359.937 645.575 369.835 632.642 369.835 620.154C369.835 618.452 369.766 616.794 369.626 615.179L369 608.005L362.243 610.497C343.041 617.579 322.901 621.797 302.47 623.016L297.298 623.325V628.506V724.213M319.446 666.917V662.859H313.946M319.446 666.917C318.13 667.35 316.804 667.759 315.471 668.144L313.946 662.859M297.298 724.213H302.798V628.506C321.867 627.369 340.69 623.685 358.767 617.56C358.741 617.076 358.708 616.601 358.667 616.135L364.146 615.657L365.805 620.154L366.05 620.817C365.463 621.034 364.876 621.247 364.288 621.459C363.614 630.782 355.764 641.69 340.388 651.219C332.133 656.262 323.24 660.177 313.946 662.859" fill="#5E9A3F" stroke="white" stroke-width="11"/>
<path d="M339.951 861.185L347.228 852.22C354.682 843.034 358.835 831.391 358.835 817.894C358.835 800.052 351.597 785.36 338.805 775.307L339.951 861.185ZM339.951 861.185H351.498M339.951 861.185H351.498M351.498 861.185H384.029M351.498 861.185H384.029M193.473 861.185H277.603H283.103V855.685V810.796H297.297V854.602V861.073L303.684 860.03C314.505 858.263 323.41 854.525 330.028 849.316C339.282 842.059 344.64 831.543 344.64 817.894C344.64 804.239 339.279 793.739 330.029 786.472C320.608 779.054 306.544 774.589 288.751 774.589C269.736 774.589 249.542 773.061 233.907 766.119C225.96 762.587 218.904 757.53 213.844 750.317C208.762 743.058 206.07 734.109 206.07 723.414C206.07 712.72 208.762 703.772 213.843 696.513C218.902 689.301 225.969 684.242 233.908 680.709L193.473 861.185ZM193.473 861.185V875.38H384.029V861.185M193.473 861.185H384.029M258.057 674.148V688.511C251.319 689.627 245.081 691.279 239.668 693.685C233.442 696.452 228.695 700.062 225.481 704.65L225.48 704.651C222.3 709.191 220.265 715.206 220.265 723.414C220.265 731.609 222.281 737.632 225.485 742.184C228.699 746.769 233.444 750.377 239.668 753.143C252.393 758.8 269.982 760.407 288.751 760.407C308.738 760.407 326.192 765.403 338.803 775.306L258.057 674.148ZM258.057 674.148C249.347 675.436 241.11 677.506 233.91 680.708L258.057 674.148Z" fill="#5E9A3F" stroke="white" stroke-width="11"/>
<path d="M48.5425 437.724L49.442 443.15C48.5425 437.724 48.5452 437.724 48.548 437.723L48.5546 437.722L48.5714 437.719L48.6188 437.712C48.6564 437.706 48.7063 437.698 48.768 437.689C48.8913 437.67 49.0623 437.645 49.2783 437.616C49.7104 437.558 50.3237 437.483 51.0993 437.405C52.6495 437.25 54.8542 437.085 57.5611 437.034C62.9622 436.931 70.4349 437.276 78.7308 439.082C93.2102 442.235 110.336 449.892 123.091 467.372C123.943 464.677 124.378 461.821 123.942 459.186C123.35 455.615 120.295 449.234 114.156 443.6C108.173 438.11 99.5142 433.577 87.9872 433.195C81.6731 432.986 74.7388 433.106 67.6646 433.27C66.6994 433.293 65.7311 433.316 64.7617 433.339C58.6851 433.485 52.564 433.632 46.8946 433.581C40.9963 433.528 35.3285 433.262 30.4896 432.496C30.515 432.55 30.5405 432.604 30.5661 432.658C34.0755 440.088 39.2892 449.841 46.1332 459.269C60.0556 478.447 79.3711 494.547 103.742 490.507C104.573 490.369 106.288 489.697 108.464 488.496L112.324 486.363C107.743 479.444 102.701 472.843 96.4258 467.088C85.7454 457.295 71.3158 449.849 49.143 448.642L48.5425 437.724Z" fill="#5E9A3F" stroke="white" stroke-width="11"/>
<path d="M126.597 473.911C126.092 472.217 125.811 470.633 125.714 469.062C125.518 465.895 126.044 462.38 127.539 457.681L126.597 473.911ZM126.597 473.911C134.697 469.132 140.093 462.321 141.943 454.013C143.811 445.62 142.241 434.869 134.727 422.002C131.499 424.452 128.502 426.089 125.745 427.344C124.14 428.075 122.585 428.688 121.261 429.21C120.927 429.342 120.608 429.468 120.307 429.588C118.724 430.221 117.545 430.735 116.523 431.332C103.779 438.78 99.4624 455.461 107.183 468.674L126.597 473.911ZM110.646 474.355C110.572 473.438 110.528 472.52 110.516 471.602C110.414 463.702 112.647 456.208 116.676 448.775L110.646 474.355ZM110.646 474.355C109.556 472.649 108.402 470.757 107.184 468.675L110.646 474.355ZM128.47 453.464C128.338 454.745 128.024 456.159 127.54 457.68L128.47 453.464ZM128.47 453.464C128.589 452.302 128.61 450.79 128.114 449.324M128.47 453.464L128.114 449.324M128.114 449.324C127.866 448.59 127.337 447.416 126.179 446.448M128.114 449.324L126.179 446.448M126.179 446.448C124.832 445.323 123.022 444.819 121.206 445.191M126.179 446.448L121.206 445.191M121.206 445.191C119.642 445.512 118.587 446.37 118.018 446.943M121.206 445.191L118.018 446.943M118.018 446.943C117.408 447.557 116.978 448.217 116.676 448.774L118.018 446.943ZM117.541 452.103C117.541 452.102 117.542 452.116 117.541 452.145C117.54 452.118 117.54 452.103 117.541 452.103Z" fill="#5E9A3F" stroke="white" stroke-width="11"/>
<circle cx="288.694" cy="591.754" r="16.8573" fill="#5E9A3F" stroke="white" stroke-width="6"/>
<defs>
<linearGradient id="paint0_linear_38_71" x1="289" y1="322" x2="434.416" y2="830.652" gradientUnits="userSpaceOnUse">
<stop offset="0.250659" stop-color="#098178"/>
<stop offset="1" stop-color="#021B19"/>
</linearGradient>
<linearGradient id="paint1_linear_38_71" x1="289" y1="621.387" x2="414.864" y2="876.782" gradientUnits="userSpaceOnUse">
<stop stop-color="#5E9A3F"/>
<stop offset="1" stop-color="#203415"/>
</linearGradient>
</defs>
</svg>
